# xmcd CD database file
#
# Track frame offsets:
#	150
#	19925
#	37337
#
# Disc length: 691 seconds
#
# Revision: 0
# Processed by: cddbd v1.5.2PL0 Copyright (c) Steve Scherf et al.
# Submitted via: CDex 1.51
#
DISCID=2302b103
DTITLE=Trisha Yearwood - I'll Still Love You More
DYEAR=1998
DGENRE=Country
TTITLE0=I'll Still Love You More
TTITLE1=There Goes Mu Baby
TTITLE2=It's Alright
EXTD=YEAR: 1998
EXTT0=
EXTT1=
EXTT2=
PLAYORDER=
